<?xml version="1.0" standalone="no"?>
<!DOCTYPE svg PUBLIC "-//W3C//DTD SVG 20010904//EN"
 "http://www.w3.org/TR/2001/REC-SVG-20010904/DTD/svg10.dtd">
<svg version="1.0" xmlns="http://www.w3.org/2000/svg"
 width="512.000000pt" height="512.000000pt" viewBox="0 0 512.000000 512.000000"
 preserveAspectRatio="xMidYMid meet">
<metadata>
Created by potrace 1.14, written by Peter Selinger 2001-2017
</metadata>
<g transform="translate(0.000000,512.000000) scale(0.100000,-0.100000)"
fill="#000000" stroke="none">
<path d="M857 5110 c-97 -17 -262 -78 -279 -104 -5 -7 -8 -7 -8 -1 0 6 -7 1
-16 -10 -8 -11 -17 -18 -19 -15 -10 13 -225 -183 -225 -205 0 -3 -5 -11 -10
-18 -27 -32 -68 -102 -64 -109 3 -4 0 -8 -5 -8 -6 0 -10 -3 -9 -7 0 -5 -7 -26
-17 -48 -9 -22 -18 -44 -20 -50 -1 -5 -5 -17 -8 -25 -4 -8 -9 -26 -11 -40 -3
-14 -5 -25 -6 -25 -1 0 -3 -13 -4 -30 -1 -16 -4 -34 -7 -40 -6 -10 -3 -180 3
-240 2 -16 7 -36 11 -42 5 -7 6 -13 3 -13 -2 0 0 -15 5 -32 6 -18 12 -40 14
-48 2 -8 11 -33 21 -55 10 -22 17 -43 16 -47 -1 -5 3 -8 9 -8 5 0 8 -4 4 -9
-3 -5 -1 -12 4 -15 5 -3 23 -30 39 -59 31 -55 157 -191 204 -222 34 -21 34
-29 7 -92 -26 -58 -138 -387 -144 -423 -3 -14 -10 -41 -16 -60 -11 -37 -46
-169 -55 -209 -3 -13 -11 -50 -19 -83 -7 -32 -14 -61 -14 -63 -1 -3 -1 -6 -2
-7 -2 -9 -9 -47 -13 -73 -2 -16 -6 -37 -10 -45 -3 -8 -8 -33 -10 -55 -3 -22
-8 -53 -11 -70 -4 -16 -8 -43 -10 -60 -2 -16 -4 -30 -5 -30 -2 0 -8 -42 -15
-100 -3 -22 -7 -60 -11 -85 -9 -70 -10 -270 -2 -318 4 -24 10 -64 14 -90 3
-26 11 -55 16 -65 5 -10 7 -24 5 -31 -3 -7 0 -26 7 -42 7 -16 20 -50 29 -76
32 -90 52 -143 57 -148 3 -3 15 -25 28 -50 85 -166 196 -303 387 -475 28 -24
54 -45 58 -45 5 0 15 -7 24 -15 21 -22 150 -105 162 -105 5 0 11 -4 13 -8 2
-7 232 -127 248 -130 9 -1 64 -22 85 -32 44 -20 290 -97 290 -90 0 1 13 -3 28
-9 25 -10 169 -42 251 -57 16 -2 38 -17 50 -31 42 -54 179 -179 189 -172 3 2
13 -3 23 -13 41 -36 199 -98 294 -115 66 -12 250 -10 314 3 121 26 265 88 322
140 12 12 25 20 27 18 5 -6 147 133 147 145 0 7 19 20 40 26 5 1 67 13 120 22
112 19 405 109 513 156 31 14 57 23 57 19 0 -4 4 -1 9 6 4 7 16 14 25 16 10 1
21 8 25 15 5 7 10 12 12 11 10 -4 59 13 59 21 0 5 5 9 11 9 16 0 170 93 243
147 118 87 226 185 226 206 0 6 3 8 6 5 5 -5 61 51 86 87 4 5 18 24 31 40 33
41 98 143 96 151 0 4 3 10 8 13 12 9 63 109 63 125 0 7 7 19 15 26 9 7 14 19
11 27 -3 7 -1 13 4 13 6 0 9 3 8 8 -1 4 4 20 10 35 7 16 12 35 12 43 0 8 3 14
8 14 4 0 7 10 8 23 1 21 11 72 14 72 3 0 16 70 27 145 10 69 4 375 -7 375 -1
0 -4 23 -6 50 -3 28 -7 57 -10 65 -4 8 -8 33 -10 54 -3 22 -7 51 -10 65 -3 14
-7 42 -9 61 -2 19 -4 35 -5 35 -2 0 -9 26 -15 65 -16 94 -26 144 -32 160 -3 8
-7 22 -8 30 -2 8 -6 26 -10 40 -4 14 -10 43 -15 65 -5 22 -14 54 -20 70 -6 17
-11 31 -11 33 2 5 -11 58 -21 83 -5 15 -11 37 -13 50 -4 30 -93 291 -129 378
-32 78 -32 83 -4 101 40 27 216 210 202 210 -2 0 8 19 22 42 30 47 59 109 56
121 -1 4 3 7 9 7 5 0 8 4 4 9 -3 5 0 13 6 16 5 4 8 13 5 21 -3 8 -1 14 4 14 6
0 9 3 9 8 -1 4 0 9 1 12 3 7 10 51 13 80 2 14 6 30 9 35 7 13 2 233 -7 265 -3
14 -9 39 -12 55 -3 17 -9 38 -15 48 -5 10 -11 26 -13 36 -3 15 -16 44 -69 148
-6 13 -14 23 -18 23 -5 0 -8 5 -8 11 0 13 -75 105 -114 139 -16 14 -39 35 -52
48 -13 12 -27 22 -33 22 -5 0 -11 4 -13 9 -11 30 -196 114 -313 142 -108 26
-398 13 -440 -21 -5 -4 -28 -13 -50 -20 -58 -18 -198 -99 -225 -131 -3 -3 -13
-8 -22 -12 -10 -3 -18 -13 -18 -21 0 -17 -26 -15 -62 5 -13 7 -26 12 -30 11
-5 -1 -8 3 -8 10 0 6 -3 8 -7 5 -3 -4 -15 1 -26 10 -10 10 -20 17 -21 15 0 -2
-14 2 -31 8 -16 6 -30 10 -31 8 0 -2 -7 2 -15 8 -15 12 -68 29 -81 26 -5 -1
-8 2 -8 6 0 5 -6 9 -12 10 -7 0 -49 12 -93 26 -45 13 -94 26 -110 29 -17 3
-57 10 -90 15 -119 21 -153 24 -330 27 -201 3 -348 -11 -515 -50 -113 -27
-135 -33 -135 -35 0 -1 -11 -4 -25 -6 -13 -3 -29 -9 -34 -14 -6 -6 -15 -10
-22 -10 -6 0 -29 -8 -50 -17 -22 -9 -42 -17 -46 -17 -3 -1 -10 -4 -14 -8 -4
-5 -16 -8 -26 -8 -10 0 -18 -4 -18 -9 0 -8 -40 -23 -56 -21 -3 1 -12 -7 -20
-17 -7 -10 -14 -14 -14 -9 0 5 -6 3 -13 -3 -11 -8 -29 2 -82 43 -97 78 -250
149 -365 171 -57 10 -251 13 -303 5z"/>
</g>
</svg>
